<svg xmlns="http://www.w3.org/2000/svg" width="920" height="760" viewBox="0 0 920 760">
<style>
text { font-family: Inter, DejaVu Sans, Arial, sans-serif; fill: #172033; }
.title { font-size: 24px; font-weight: 700; }
.subtitle { font-size: 13px; fill: #64748b; }
.label { font-size: 12px; }
.small { font-size: 11px; fill: #64748b; }
.value { font-size: 12px; font-weight: 600; }
</style>
<rect width="920" height="760" fill="#ffffff"/>
<text x="28" y="36" class="title">Five-fold OOF vs Public LB</text>
<text x="28" y="58" class="subtitle">Historical E-3 audit; all-pair Spearman=0.970, pure-model Spearman=0.973.</text>
<line x1="187.2" y1="96" x2="187.2" y2="678" stroke="#dbe3ee"/>
<text x="187.2" y="702" text-anchor="middle" class="small">0.610</text>
<line x1="318.8" y1="96" x2="318.8" y2="678" stroke="#dbe3ee"/>
<text x="318.8" y="702" text-anchor="middle" class="small">0.620</text>
<line x1="450.4" y1="96" x2="450.4" y2="678" stroke="#dbe3ee"/>
<text x="450.4" y="702" text-anchor="middle" class="small">0.630</text>
<line x1="582.0" y1="96" x2="582.0" y2="678" stroke="#dbe3ee"/>
<text x="582.0" y="702" text-anchor="middle" class="small">0.640</text>
<line x1="713.5" y1="96" x2="713.5" y2="678" stroke="#dbe3ee"/>
<text x="713.5" y="702" text-anchor="middle" class="small">0.650</text>
<line x1="845.1" y1="96" x2="845.1" y2="678" stroke="#dbe3ee"/>
<text x="845.1" y="702" text-anchor="middle" class="small">0.660</text>
<line x1="976.7" y1="96" x2="976.7" y2="678" stroke="#dbe3ee"/>
<text x="976.7" y="702" text-anchor="middle" class="small">0.670</text>
<line x1="90" y1="537.0" x2="870" y2="537.0" stroke="#dbe3ee"/>
<text x="80" y="541.0" text-anchor="end" class="small">0.700</text>
<line x1="90" y1="380.2" x2="870" y2="380.2" stroke="#dbe3ee"/>
<text x="80" y="384.2" text-anchor="end" class="small">0.720</text>
<line x1="90" y1="223.4" x2="870" y2="223.4" stroke="#dbe3ee"/>
<text x="80" y="227.4" text-anchor="end" class="small">0.740</text>
<line x1="90" y1="66.7" x2="870" y2="66.7" stroke="#dbe3ee"/>
<text x="80" y="70.7" text-anchor="end" class="small">0.760</text>
<line x1="90.0" y1="662.1" x2="870.0" y2="73.1" stroke="#dc2626" stroke-width="2"/>
<circle cx="817.4" cy="127.4" r="6" fill="#2563eb"/>
<text x="825.4" y="120.4" class="small">exp003</text>
<circle cx="458.9" cy="339.0" r="6" fill="#2563eb"/>
<text x="466.9" y="332.0" class="small">exp004</text>
<circle cx="790.5" cy="187.8" r="6" fill="#2563eb"/>
<text x="798.5" y="180.8" class="small">exp005</text>
<circle cx="671.5" cy="184.0" r="6" fill="#2563eb"/>
<text x="679.5" y="177.0" class="small">exp006</text>
<path d="M 452.9 334.9 L 464.9 346.9 M 464.9 334.9 L 452.9 346.9" stroke="#d97706" stroke-width="2.5"/>
<text x="466.9" y="333.9" class="small">exp008</text>
<circle cx="370.7" cy="416.7" r="6" fill="#2563eb"/>
<text x="378.7" y="409.7" class="small">exp009</text>
<circle cx="620.3" cy="263.6" r="6" fill="#2563eb"/>
<text x="628.3" y="256.6" class="small">exp010</text>
<circle cx="487.2" cy="354.9" r="6" fill="#2563eb"/>
<text x="495.2" y="347.9" class="small">exp011</text>
<path d="M 364.7 455.2 L 376.7 467.2 M 376.7 455.2 L 364.7 467.2" stroke="#d97706" stroke-width="2.5"/>
<text x="378.7" y="454.2" class="small">exp015</text>
<circle cx="300.5" cy="554.5" r="6" fill="#2563eb"/>
<text x="308.5" y="547.5" class="small">exp016</text>
<circle cx="269.9" cy="539.0" r="6" fill="#2563eb"/>
<text x="277.9" y="532.0" class="small">exp017</text>
<circle cx="177.5" cy="592.3" r="6" fill="#2563eb"/>
<text x="185.5" y="585.3" class="small">exp018</text>
<circle cx="142.6" cy="646.6" r="6" fill="#2563eb"/>
<text x="150.6" y="639.6" class="small">exp035_no_dilation</text>
<text x="480.0" y="742" text-anchor="middle" class="label">5-fold OOF tile RMSE</text>
<text x="20" y="387.0" text-anchor="middle" transform="rotate(-90 20 387.0)" class="label">Public RMSE</text>
</svg>