<svg xmlns="http://www.w3.org/2000/svg" width="1240" height="776" viewBox="0 0 1240 776">
<style>
text { font-family: Inter, DejaVu Sans, Arial, sans-serif; fill: #172033; }
.title { font-size: 24px; font-weight: 700; }
.subtitle { font-size: 13px; fill: #64748b; }
.label { font-size: 12px; }
.small { font-size: 11px; fill: #64748b; }
.value { font-size: 12px; font-weight: 600; }
</style>
<rect width="1240" height="776" fill="#ffffff"/>
<text x="28" y="36" class="title">Fold variability of tile RMSE</text>
<text x="28" y="58" class="subtitle">Dots are held-out-location folds; diamond is the unweighted fold mean. Large spread is mainly geography/rain-regime shift.</text>
<line x1="395.1" y1="84" x2="395.1" y2="717" stroke="#dbe3ee"/>
<text x="395.1" y="747" text-anchor="middle" class="small">0.40</text>
<line x1="598.0" y1="84" x2="598.0" y2="717" stroke="#dbe3ee"/>
<text x="598.0" y="747" text-anchor="middle" class="small">0.60</text>
<line x1="800.8" y1="84" x2="800.8" y2="717" stroke="#dbe3ee"/>
<text x="800.8" y="747" text-anchor="middle" class="small">0.80</text>
<line x1="1003.7" y1="84" x2="1003.7" y2="717" stroke="#dbe3ee"/>
<text x="1003.7" y="747" text-anchor="middle" class="small">1.00</text>
<line x1="1206.6" y1="84" x2="1206.6" y2="717" stroke="#dbe3ee"/>
<text x="1206.6" y="747" text-anchor="middle" class="small">1.20</text>
<text x="238" y="111.5" text-anchor="end" class="label">exp009</text>
<line x1="320.4" y1="107.5" x2="822.9" y2="107.5" stroke="#64748b" stroke-width="2"/>
<circle cx="320.4" cy="107.5" r="4.2" fill="#2563eb" opacity="0.75"/>
<circle cx="740.2" cy="107.5" r="4.2" fill="#2563eb" opacity="0.75"/>
<circle cx="662.4" cy="107.5" r="4.2" fill="#2563eb" opacity="0.75"/>
<circle cx="822.9" cy="107.5" r="4.2" fill="#2563eb" opacity="0.75"/>
<circle cx="601.8" cy="107.5" r="4.2" fill="#2563eb" opacity="0.75"/>
<path d="M 629.5 100.5 L 636.5 107.5 L 629.5 114.5 L 622.5 107.5 Z" fill="#dc2626"/>
<text x="1132" y="111.5" class="value">0.6311 ± 0.1691</text>
<rect x="18" y="123.0" width="1204" height="31" fill="#f8fafc"/>
<text x="238" y="142.5" text-anchor="end" class="label">exp010</text>
<line x1="324.2" y1="138.5" x2="1043.5" y2="138.5" stroke="#64748b" stroke-width="2"/>
<circle cx="324.2" cy="138.5" r="4.2" fill="#2563eb" opacity="0.75"/>
<circle cx="734.7" cy="138.5" r="4.2" fill="#2563eb" opacity="0.75"/>
<circle cx="468.4" cy="138.5" r="4.2" fill="#2563eb" opacity="0.75"/>
<circle cx="1043.5" cy="138.5" r="4.2" fill="#2563eb" opacity="0.75"/>
<circle cx="671.5" cy="138.5" r="4.2" fill="#2563eb" opacity="0.75"/>
<path d="M 648.5 131.5 L 655.5 138.5 L 648.5 145.5 L 641.5 138.5 Z" fill="#dc2626"/>
<text x="1132" y="142.5" class="value">0.6498 ± 0.2421</text>
<text x="238" y="173.5" text-anchor="end" class="label">exp011</text>
<line x1="302.3" y1="169.5" x2="836.3" y2="169.5" stroke="#64748b" stroke-width="2"/>
<circle cx="302.3" cy="169.5" r="4.2" fill="#2563eb" opacity="0.75"/>
<circle cx="754.1" cy="169.5" r="4.2" fill="#2563eb" opacity="0.75"/>
<circle cx="693.4" cy="169.5" r="4.2" fill="#2563eb" opacity="0.75"/>
<circle cx="836.3" cy="169.5" r="4.2" fill="#2563eb" opacity="0.75"/>
<circle cx="614.9" cy="169.5" r="4.2" fill="#2563eb" opacity="0.75"/>
<path d="M 640.2 162.5 L 647.2 169.5 L 640.2 176.5 L 633.2 169.5 Z" fill="#dc2626"/>
<text x="1132" y="173.5" class="value">0.6416 ± 0.1813</text>
<rect x="18" y="185.0" width="1204" height="31" fill="#f8fafc"/>
<text x="238" y="204.5" text-anchor="end" class="label">exp012</text>
<line x1="295.2" y1="200.5" x2="821.5" y2="200.5" stroke="#64748b" stroke-width="2"/>
<circle cx="295.2" cy="200.5" r="4.2" fill="#2563eb" opacity="0.75"/>
<circle cx="731.5" cy="200.5" r="4.2" fill="#2563eb" opacity="0.75"/>
<circle cx="684.9" cy="200.5" r="4.2" fill="#2563eb" opacity="0.75"/>
<circle cx="821.5" cy="200.5" r="4.2" fill="#2563eb" opacity="0.75"/>
<circle cx="605.6" cy="200.5" r="4.2" fill="#2563eb" opacity="0.75"/>
<path d="M 627.7 193.5 L 634.7 200.5 L 627.7 207.5 L 620.7 200.5 Z" fill="#dc2626"/>
<text x="1132" y="204.5" class="value">0.6293 ± 0.1778</text>
<text x="238" y="235.5" text-anchor="end" class="label">exp013</text>
<line x1="312.0" y1="231.5" x2="819.2" y2="231.5" stroke="#64748b" stroke-width="2"/>
<circle cx="312.0" cy="231.5" r="4.2" fill="#2563eb" opacity="0.75"/>
<circle cx="736.8" cy="231.5" r="4.2" fill="#2563eb" opacity="0.75"/>
<circle cx="690.3" cy="231.5" r="4.2" fill="#2563eb" opacity="0.75"/>
<circle cx="819.2" cy="231.5" r="4.2" fill="#2563eb" opacity="0.75"/>
<circle cx="616.0" cy="231.5" r="4.2" fill="#2563eb" opacity="0.75"/>
<path d="M 634.9 224.5 L 641.9 231.5 L 634.9 238.5 L 627.9 231.5 Z" fill="#dc2626"/>
<text x="1132" y="235.5" class="value">0.6364 ± 0.1719</text>
<rect x="18" y="247.0" width="1204" height="31" fill="#f8fafc"/>
<text x="238" y="266.5" text-anchor="end" class="label">exp016</text>
<line x1="288.2" y1="262.5" x2="804.3" y2="262.5" stroke="#64748b" stroke-width="2"/>
<circle cx="288.2" cy="262.5" r="4.2" fill="#2563eb" opacity="0.75"/>
<circle cx="763.3" cy="262.5" r="4.2" fill="#2563eb" opacity="0.75"/>
<circle cx="665.9" cy="262.5" r="4.2" fill="#2563eb" opacity="0.75"/>
<circle cx="804.3" cy="262.5" r="4.2" fill="#2563eb" opacity="0.75"/>
<circle cx="601.1" cy="262.5" r="4.2" fill="#2563eb" opacity="0.75"/>
<path d="M 624.6 255.5 L 631.6 262.5 L 624.6 269.5 L 617.6 262.5 Z" fill="#dc2626"/>
<text x="1132" y="266.5" class="value">0.6262 ± 0.1801</text>
<text x="238" y="297.5" text-anchor="end" class="label">exp017</text>
<line x1="300.2" y1="293.5" x2="807.1" y2="293.5" stroke="#64748b" stroke-width="2"/>
<circle cx="300.2" cy="293.5" r="4.2" fill="#2563eb" opacity="0.75"/>
<circle cx="739.8" cy="293.5" r="4.2" fill="#2563eb" opacity="0.75"/>
<circle cx="659.9" cy="293.5" r="4.2" fill="#2563eb" opacity="0.75"/>
<circle cx="807.1" cy="293.5" r="4.2" fill="#2563eb" opacity="0.75"/>
<circle cx="602.6" cy="293.5" r="4.2" fill="#2563eb" opacity="0.75"/>
<path d="M 621.9 286.5 L 628.9 293.5 L 621.9 300.5 L 614.9 293.5 Z" fill="#dc2626"/>
<text x="1132" y="297.5" class="value">0.6236 ± 0.1728</text>
<rect x="18" y="309.0" width="1204" height="31" fill="#f8fafc"/>
<text x="238" y="328.5" text-anchor="end" class="label">exp018</text>
<line x1="285.9" y1="324.5" x2="792.2" y2="324.5" stroke="#64748b" stroke-width="2"/>
<circle cx="285.9" cy="324.5" r="4.2" fill="#2563eb" opacity="0.75"/>
<circle cx="751.4" cy="324.5" r="4.2" fill="#2563eb" opacity="0.75"/>
<circle cx="657.1" cy="324.5" r="4.2" fill="#2563eb" opacity="0.75"/>
<circle cx="792.2" cy="324.5" r="4.2" fill="#2563eb" opacity="0.75"/>
<circle cx="583.1" cy="324.5" r="4.2" fill="#2563eb" opacity="0.75"/>
<path d="M 613.9 317.5 L 620.9 324.5 L 613.9 331.5 L 606.9 324.5 Z" fill="#dc2626"/>
<text x="1132" y="328.5" class="value">0.6157 ± 0.1770</text>
<text x="238" y="359.5" text-anchor="end" class="label">exp022/canonical</text>
<line x1="750.5" y1="355.5" x2="816.9" y2="355.5" stroke="#64748b" stroke-width="2"/>
<circle cx="750.5" cy="355.5" r="4.2" fill="#2563eb" opacity="0.75"/>
<circle cx="816.9" cy="355.5" r="4.2" fill="#2563eb" opacity="0.75"/>
<path d="M 783.7 348.5 L 790.7 355.5 L 783.7 362.5 L 776.7 355.5 Z" fill="#dc2626"/>
<text x="1132" y="359.5" class="value">0.7831 ± 0.0327</text>
<rect x="18" y="371.0" width="1204" height="31" fill="#f8fafc"/>
<text x="238" y="390.5" text-anchor="end" class="label">exp022/engineered</text>
<line x1="737.9" y1="386.5" x2="817.5" y2="386.5" stroke="#64748b" stroke-width="2"/>
<circle cx="737.9" cy="386.5" r="4.2" fill="#2563eb" opacity="0.75"/>
<circle cx="817.5" cy="386.5" r="4.2" fill="#2563eb" opacity="0.75"/>
<path d="M 777.7 379.5 L 784.7 386.5 L 777.7 393.5 L 770.7 386.5 Z" fill="#dc2626"/>
<text x="1132" y="390.5" class="value">0.7772 ± 0.0392</text>
<text x="238" y="421.5" text-anchor="end" class="label">exp022/full</text>
<line x1="765.2" y1="417.5" x2="810.5" y2="417.5" stroke="#64748b" stroke-width="2"/>
<circle cx="765.2" cy="417.5" r="4.2" fill="#2563eb" opacity="0.75"/>
<circle cx="810.5" cy="417.5" r="4.2" fill="#2563eb" opacity="0.75"/>
<path d="M 787.9 410.5 L 794.9 417.5 L 787.9 424.5 L 780.9 417.5 Z" fill="#dc2626"/>
<text x="1132" y="421.5" class="value">0.7872 ± 0.0223</text>
<rect x="18" y="433.0" width="1204" height="31" fill="#f8fafc"/>
<text x="238" y="452.5" text-anchor="end" class="label">exp025/seed123</text>
<line x1="308.3" y1="448.5" x2="1026.4" y2="448.5" stroke="#64748b" stroke-width="2"/>
<circle cx="308.3" cy="448.5" r="4.2" fill="#2563eb" opacity="0.75"/>
<circle cx="636.4" cy="448.5" r="4.2" fill="#2563eb" opacity="0.75"/>
<circle cx="525.0" cy="448.5" r="4.2" fill="#2563eb" opacity="0.75"/>
<circle cx="1026.4" cy="448.5" r="4.2" fill="#2563eb" opacity="0.75"/>
<circle cx="640.5" cy="448.5" r="4.2" fill="#2563eb" opacity="0.75"/>
<path d="M 627.3 441.5 L 634.3 448.5 L 627.3 455.5 L 620.3 448.5 Z" fill="#dc2626"/>
<text x="1132" y="452.5" class="value">0.6289 ± 0.2298</text>
<text x="238" y="483.5" text-anchor="end" class="label">exp025/seed2026</text>
<line x1="312.6" y1="479.5" x2="1089.6" y2="479.5" stroke="#64748b" stroke-width="2"/>
<circle cx="312.6" cy="479.5" r="4.2" fill="#2563eb" opacity="0.75"/>
<circle cx="464.8" cy="479.5" r="4.2" fill="#2563eb" opacity="0.75"/>
<circle cx="751.7" cy="479.5" r="4.2" fill="#2563eb" opacity="0.75"/>
<circle cx="1089.6" cy="479.5" r="4.2" fill="#2563eb" opacity="0.75"/>
<circle cx="609.3" cy="479.5" r="4.2" fill="#2563eb" opacity="0.75"/>
<path d="M 645.6 472.5 L 652.6 479.5 L 645.6 486.5 L 638.6 479.5 Z" fill="#dc2626"/>
<text x="1132" y="483.5" class="value">0.6469 ± 0.2620</text>
<rect x="18" y="495.0" width="1204" height="31" fill="#f8fafc"/>
<text x="238" y="514.5" text-anchor="end" class="label">exp025/seed42</text>
<line x1="299.0" y1="510.5" x2="817.5" y2="510.5" stroke="#64748b" stroke-width="2"/>
<circle cx="299.0" cy="510.5" r="4.2" fill="#2563eb" opacity="0.75"/>
<circle cx="730.7" cy="510.5" r="4.2" fill="#2563eb" opacity="0.75"/>
<circle cx="673.1" cy="510.5" r="4.2" fill="#2563eb" opacity="0.75"/>
<circle cx="817.5" cy="510.5" r="4.2" fill="#2563eb" opacity="0.75"/>
<circle cx="602.3" cy="510.5" r="4.2" fill="#2563eb" opacity="0.75"/>
<path d="M 624.5 503.5 L 631.5 510.5 L 624.5 517.5 L 617.5 510.5 Z" fill="#dc2626"/>
<text x="1132" y="514.5" class="value">0.6262 ± 0.1749</text>
<text x="238" y="545.5" text-anchor="end" class="label">exp035</text>
<line x1="288.5" y1="541.5" x2="586.2" y2="541.5" stroke="#64748b" stroke-width="2"/>
<circle cx="288.5" cy="541.5" r="4.2" fill="#2563eb" opacity="0.75"/>
<circle cx="586.2" cy="541.5" r="4.2" fill="#2563eb" opacity="0.75"/>
<path d="M 437.3 534.5 L 444.3 541.5 L 437.3 548.5 L 430.3 541.5 Z" fill="#dc2626"/>
<text x="1132" y="545.5" class="value">0.4416 ± 0.1468</text>
<rect x="18" y="557.0" width="1204" height="31" fill="#f8fafc"/>
<text x="238" y="576.5" text-anchor="end" class="label">exp035_dilation_only</text>
<line x1="290.0" y1="572.5" x2="584.6" y2="572.5" stroke="#64748b" stroke-width="2"/>
<circle cx="290.0" cy="572.5" r="4.2" fill="#2563eb" opacity="0.75"/>
<circle cx="584.6" cy="572.5" r="4.2" fill="#2563eb" opacity="0.75"/>
<path d="M 437.3 565.5 L 444.3 572.5 L 437.3 579.5 L 430.3 572.5 Z" fill="#dc2626"/>
<text x="1132" y="576.5" class="value">0.4416 ± 0.1452</text>
<text x="238" y="607.5" text-anchor="end" class="label">exp035_no_dilation</text>
<line x1="280.4" y1="603.5" x2="797.2" y2="603.5" stroke="#64748b" stroke-width="2"/>
<circle cx="280.4" cy="603.5" r="4.2" fill="#2563eb" opacity="0.75"/>
<circle cx="740.9" cy="603.5" r="4.2" fill="#2563eb" opacity="0.75"/>
<circle cx="658.9" cy="603.5" r="4.2" fill="#2563eb" opacity="0.75"/>
<circle cx="797.2" cy="603.5" r="4.2" fill="#2563eb" opacity="0.75"/>
<circle cx="583.1" cy="603.5" r="4.2" fill="#2563eb" opacity="0.75"/>
<path d="M 612.1 596.5 L 619.1 603.5 L 612.1 610.5 L 605.1 603.5 Z" fill="#dc2626"/>
<text x="1132" y="607.5" class="value">0.6139 ± 0.1785</text>
<rect x="18" y="619.0" width="1204" height="31" fill="#f8fafc"/>
<text x="238" y="638.5" text-anchor="end" class="label">exp035_tilemean</text>
<line x1="283.4" y1="634.5" x2="583.8" y2="634.5" stroke="#64748b" stroke-width="2"/>
<circle cx="283.4" cy="634.5" r="4.2" fill="#2563eb" opacity="0.75"/>
<circle cx="583.8" cy="634.5" r="4.2" fill="#2563eb" opacity="0.75"/>
<path d="M 433.6 627.5 L 440.6 634.5 L 433.6 641.5 L 426.6 634.5 Z" fill="#dc2626"/>
<text x="1132" y="638.5" class="value">0.4380 ± 0.1481</text>
<text x="238" y="669.5" text-anchor="end" class="label">exp038</text>
<line x1="283.1" y1="665.5" x2="801.8" y2="665.5" stroke="#64748b" stroke-width="2"/>
<circle cx="283.1" cy="665.5" r="4.2" fill="#2563eb" opacity="0.75"/>
<circle cx="747.0" cy="665.5" r="4.2" fill="#2563eb" opacity="0.75"/>
<circle cx="667.8" cy="665.5" r="4.2" fill="#2563eb" opacity="0.75"/>
<circle cx="801.8" cy="665.5" r="4.2" fill="#2563eb" opacity="0.75"/>
<circle cx="594.0" cy="665.5" r="4.2" fill="#2563eb" opacity="0.75"/>
<path d="M 618.7 658.5 L 625.7 665.5 L 618.7 672.5 L 611.7 665.5 Z" fill="#dc2626"/>
<text x="1132" y="669.5" class="value">0.6205 ± 0.1794</text>
<rect x="18" y="681.0" width="1204" height="31" fill="#f8fafc"/>
<text x="238" y="700.5" text-anchor="end" class="label">exp038_features</text>
<line x1="282.1" y1="696.5" x2="591.2" y2="696.5" stroke="#64748b" stroke-width="2"/>
<circle cx="282.1" cy="696.5" r="4.2" fill="#2563eb" opacity="0.75"/>
<circle cx="591.2" cy="696.5" r="4.2" fill="#2563eb" opacity="0.75"/>
<path d="M 436.7 689.5 L 443.7 696.5 L 436.7 703.5 L 429.7 696.5 Z" fill="#dc2626"/>
<text x="1132" y="700.5" class="value">0.4410 ± 0.1524</text>
<text x="1120" y="767" text-anchor="end" class="small">tile RMSE (lower is better)</text>
</svg>