<svg xmlns="http://www.w3.org/2000/svg" width="1240" height="879" viewBox="0 0 1240 879">
<style>
text { font-family: Inter, DejaVu Sans, Arial, sans-serif; fill: #172033; }
.title { font-size: 24px; font-weight: 700; }
.subtitle { font-size: 13px; fill: #64748b; }
.label { font-size: 12px; }
.small { font-size: 11px; fill: #64748b; }
.value { font-size: 12px; font-weight: 600; }
</style>
<rect width="1240" height="879" fill="#ffffff"/>
<text x="28" y="36" class="title">Best recorded Public RMSE by experiment</text>
<text x="28" y="58" class="subtitle">One best submission per experiment; colors follow the current green / amber / red rules audit, not submission validity.</text>
<line x1="612.2" y1="84" x2="612.2" y2="822" stroke="#dbe3ee"/>
<text x="612.2" y="851" text-anchor="middle" class="small">0.700</text>
<line x1="1011.2" y1="84" x2="1011.2" y2="822" stroke="#dbe3ee"/>
<text x="1011.2" y="851" text-anchor="middle" class="small">0.750</text>
<line x1="1410.2" y1="84" x2="1410.2" y2="822" stroke="#dbe3ee"/>
<text x="1410.2" y="851" text-anchor="middle" class="small">0.800</text>
<text x="1095" y="870" text-anchor="end" class="small">RMSE (lower is better)</text>
<text x="238" y="110.5" text-anchor="end" class="label">exp001</text>
<circle cx="1036.7" cy="106.5" r="5.5" fill="#059669"/>
<text x="1107" y="110.5" class="value">0.753200</text>
<title>exp001_submission.zip</title>
<rect x="18" y="121.0" width="1204" height="29" fill="#f8fafc"/>
<text x="238" y="139.5" text-anchor="end" class="label">exp002</text>
<circle cx="994.9" cy="135.5" r="5.5" fill="#059669"/>
<text x="1107" y="139.5" class="value">0.747957</text>
<title>exp002_submission.zip</title>
<text x="238" y="168.5" text-anchor="end" class="label">exp003</text>
<circle cx="1029.2" cy="164.5" r="5.5" fill="#059669"/>
<text x="1107" y="168.5" class="value">0.752258</text>
<title>exp003_submission.zip</title>
<rect x="18" y="179.0" width="1204" height="29" fill="#f8fafc"/>
<text x="238" y="197.5" text-anchor="end" class="label">exp004</text>
<circle cx="813.7" cy="193.5" r="5.5" fill="#059669"/>
<text x="1107" y="197.5" class="value">0.725253</text>
<title>exp004_submission.zip</title>
<text x="238" y="226.5" text-anchor="end" class="label">exp005</text>
<circle cx="967.7" cy="222.5" r="5.5" fill="#059669"/>
<text x="1107" y="226.5" class="value">0.744552</text>
<title>exp005_submission.zip</title>
<rect x="18" y="237.0" width="1204" height="29" fill="#f8fafc"/>
<text x="238" y="255.5" text-anchor="end" class="label">exp006</text>
<circle cx="971.6" cy="251.5" r="5.5" fill="#059669"/>
<text x="1107" y="255.5" class="value">0.745032</text>
<title>exp006_submission.zip</title>
<text x="238" y="284.5" text-anchor="end" class="label">exp007</text>
<circle cx="901.2" cy="280.5" r="5.5" fill="#059669"/>
<text x="1107" y="284.5" class="value">0.736216</text>
<title>exp007_submission.zip</title>
<rect x="18" y="295.0" width="1204" height="29" fill="#f8fafc"/>
<text x="238" y="313.5" text-anchor="end" class="label">exp008</text>
<circle cx="811.8" cy="309.5" r="5.5" fill="#059669"/>
<text x="1107" y="313.5" class="value">0.725019</text>
<title>exp008_submission.zip</title>
<text x="238" y="342.5" text-anchor="end" class="label">exp009</text>
<circle cx="734.6" cy="338.5" r="5.5" fill="#d97706"/>
<text x="1107" y="342.5" class="value">0.715344</text>
<title>exp009_submission.zip</title>
<rect x="18" y="353.0" width="1204" height="29" fill="#f8fafc"/>
<text x="238" y="371.5" text-anchor="end" class="label">exp010</text>
<circle cx="890.5" cy="367.5" r="5.5" fill="#059669"/>
<text x="1107" y="371.5" class="value">0.734873</text>
<title>exp010_submission.zip</title>
<text x="238" y="400.5" text-anchor="end" class="label">exp011</text>
<circle cx="797.6" cy="396.5" r="5.5" fill="#059669"/>
<text x="1107" y="400.5" class="value">0.723231</text>
<title>exp011_submission.zip</title>
<rect x="18" y="411.0" width="1204" height="29" fill="#f8fafc"/>
<text x="238" y="429.5" text-anchor="end" class="label">exp014</text>
<circle cx="587.3" cy="425.5" r="5.5" fill="#dc2626"/>
<text x="1107" y="429.5" class="value">0.696873</text>
<title>exp014_submission.zip</title>
<text x="238" y="458.5" text-anchor="end" class="label">exp015</text>
<circle cx="689.3" cy="454.5" r="5.5" fill="#d97706"/>
<text x="1107" y="458.5" class="value">0.709666</text>
<title>exp015_submission.zip</title>
<rect x="18" y="469.0" width="1204" height="29" fill="#f8fafc"/>
<text x="238" y="487.5" text-anchor="end" class="label">exp016</text>
<circle cx="594.4" cy="483.5" r="5.5" fill="#d97706"/>
<text x="1107" y="487.5" class="value">0.697763</text>
<title>exp016_submission.zip</title>
<text x="238" y="516.5" text-anchor="end" class="label">exp017</text>
<circle cx="610.1" cy="512.5" r="5.5" fill="#d97706"/>
<text x="1107" y="516.5" class="value">0.699741</text>
<title>exp017_submission.zip</title>
<rect x="18" y="527.0" width="1204" height="29" fill="#f8fafc"/>
<text x="238" y="545.5" text-anchor="end" class="label">exp018</text>
<circle cx="555.9" cy="541.5" r="5.5" fill="#d97706"/>
<text x="1107" y="545.5" class="value">0.692950</text>
<title>exp018_submission.zip</title>
<text x="238" y="574.5" text-anchor="end" class="label">exp024</text>
<circle cx="547.8" cy="570.5" r="5.5" fill="#d97706"/>
<text x="1107" y="574.5" class="value">0.691927</text>
<title>exp024_equal_016_017.zip</title>
<rect x="18" y="585.0" width="1204" height="29" fill="#f8fafc"/>
<text x="238" y="603.5" text-anchor="end" class="label">exp026</text>
<circle cx="409.9" cy="599.5" r="5.5" fill="#dc2626"/>
<text x="1107" y="603.5" class="value">0.674651</text>
<title>exp026_submission.zip</title>
<text x="238" y="632.5" text-anchor="end" class="label">exp027</text>
<circle cx="457.9" cy="628.5" r="5.5" fill="#dc2626"/>
<text x="1107" y="632.5" class="value">0.680657</text>
<title>exp027_half016_half017family_patched.zip</title>
<rect x="18" y="643.0" width="1204" height="29" fill="#f8fafc"/>
<text x="238" y="661.5" text-anchor="end" class="label">exp033</text>
<circle cx="388.7" cy="657.5" r="5.5" fill="#dc2626"/>
<text x="1107" y="661.5" class="value">0.671990</text>
<title>exp033_w018_050_patched.zip</title>
<text x="238" y="690.5" text-anchor="end" class="label">exp035_no_dilation</text>
<circle cx="500.6" cy="686.5" r="5.5" fill="#d97706"/>
<text x="1107" y="690.5" class="value">0.686015</text>
<title>(recorded in E-3 audit)</title>
<rect x="18" y="701.0" width="1204" height="29" fill="#f8fafc"/>
<text x="238" y="719.5" text-anchor="end" class="label">exp036</text>
<circle cx="335.0" cy="715.5" r="5.5" fill="#dc2626"/>
<text x="1107" y="719.5" class="value">0.665262</text>
<title>exp036_per_satellite_blur0p5_joint_patched.zip</title>
<text x="238" y="748.5" text-anchor="end" class="label">exp037</text>
<circle cx="343.0" cy="744.5" r="5.5" fill="#dc2626"/>
<text x="1107" y="748.5" class="value">0.666260</text>
<title>exp037_per_satellite_sm0p25_blur1_thr0p2_patched.zip</title>
<rect x="18" y="759.0" width="1204" height="29" fill="#f8fafc"/>
<text x="238" y="777.5" text-anchor="end" class="label">exp038</text>
<circle cx="525.7" cy="773.5" r="5.5" fill="#059669"/>
<text x="1107" y="777.5" class="value">0.689164</text>
<title>exp038_submission.zip</title>
<text x="238" y="806.5" text-anchor="end" class="label">exp039</text>
<circle cx="308.3" cy="802.5" r="5.5" fill="#dc2626"/>
<text x="1107" y="806.5" class="value">0.661912</text>
<title>exp039_4src_joint_patched.zip</title>
</svg>